solid OpenSCAD_Model
  facet normal -1.000000 -0.000000 -0.000000
    outer loop
      vertex 0.000000 0.000000 -5.000000
      vertex 0.000000 0.000000 0.000000
      vertex 0.000000 40.000000 -5.000000
    endloop
  endfacet
  facet normal -1.000000 0.000000 0.000000
    outer loop
      vertex 0.000000 40.000000 -5.000000
      vertex 0.000000 0.000000 0.000000
      vertex 0.000000 40.000000 0.000000
    endloop
  endfacet
  facet normal 0.000000 -1.000000 0.000000
    outer loop
      vertex 0.000000 0.000000 0.000000
      vertex 0.000000 0.000000 -5.000000
      vertex 70.000000 0.000000 -5.000000
    endloop
  endfacet
  facet normal 0.000000 -1.000000 0.000000
    outer loop
      vertex 70.000000 0.000000 0.000000
      vertex 0.000000 0.000000 0.000000
      vertex 70.000000 0.000000 -5.000000
    endloop
  endfacet
  facet normal 0.000000 -0.000000 -1.000000
    outer loop
      vertex 12.463525 33.426585 -5.000000
      vertex 0.000000 40.000000 -5.000000
      vertex 70.000000 40.000000 -5.000000
    endloop
  endfacet
  facet normal 0.000000 -0.000000 -1.000000
    outer loop
      vertex 0.000000 0.000000 -5.000000
      vertex 0.000000 40.000000 -5.000000
      vertex 10.786475 8.881678 -5.000000
    endloop
  endfacet
  facet normal 0.000000 0.000000 -1.000000
    outer loop
      vertex 0.000000 0.000000 -5.000000
      vertex 10.786475 8.881678 -5.000000
      vertex 10.786475 7.118322 -5.000000
    endloop
  endfacet
  facet normal 0.000000 0.000000 -1.000000
    outer loop
      vertex 0.000000 0.000000 -5.000000
      vertex 10.786475 7.118322 -5.000000
      vertex 12.463525 6.573415 -5.000000
    endloop
  endfacet
  facet normal -0.000000 0.000000 -1.000000
    outer loop
      vertex 0.000000 0.000000 -5.000000
      vertex 12.463525 6.573415 -5.000000
      vertex 70.000000 0.000000 -5.000000
    endloop
  endfacet
  facet normal 0.000000 0.000000 -1.000000
    outer loop
      vertex 12.463525 9.426585 -5.000000
      vertex 70.000000 0.000000 -5.000000
      vertex 13.500000 8.000000 -5.000000
    endloop
  endfacet
  facet normal 0.000000 -0.000000 -1.000000
    outer loop
      vertex 10.786475 8.881678 -5.000000
      vertex 0.000000 40.000000 -5.000000
      vertex 12.463525 9.426585 -5.000000
    endloop
  endfacet
  facet normal 0.000000 -0.000000 -1.000000
    outer loop
      vertex 10.786475 32.881678 -5.000000
      vertex 0.000000 40.000000 -5.000000
      vertex 12.463525 33.426585 -5.000000
    endloop
  endfacet
  facet normal 0.000000 0.000000 -1.000000
    outer loop
      vertex 10.786475 31.118322 -5.000000
      vertex 0.000000 40.000000 -5.000000
      vertex 10.786475 32.881678 -5.000000
    endloop
  endfacet
  facet normal 0.000000 0.000000 -1.000000
    outer loop
      vertex 25.000000 21.000000 -5.000000
      vertex 13.500000 32.000000 -5.000000
      vertex 12.463525 33.426585 -5.000000
    endloop
  endfacet
  facet normal 0.000000 0.000000 -1.000000
    outer loop
      vertex 12.463525 9.426585 -5.000000
      vertex 0.000000 40.000000 -5.000000
      vertex 10.786475 31.118322 -5.000000
    endloop
  endfacet
  facet normal -0.000000 0.000000 -1.000000
    outer loop
      vertex 59.500000 32.000000 -5.000000
      vertex 70.000000 40.000000 -5.000000
      vertex 58.463525 30.573415 -5.000000
    endloop
  endfacet
  facet normal 0.000000 0.000000 -1.000000
    outer loop
      vertex 56.786475 7.118322 -5.000000
      vertex 70.000000 0.000000 -5.000000
      vertex 25.000000 20.000000 -5.000000
    endloop
  endfacet
  facet normal 0.000000 0.000000 -1.000000
    outer loop
      vertex 12.463525 30.573415 -5.000000
      vertex 12.463525 9.426585 -5.000000
      vertex 10.786475 31.118322 -5.000000
    endloop
  endfacet
  facet normal 0.000000 0.000000 -1.000000
    outer loop
      vertex 25.000000 21.000000 -5.000000
      vertex 12.463525 30.573415 -5.000000
      vertex 13.500000 32.000000 -5.000000
    endloop
  endfacet
  facet normal 0.000000 0.000000 -1.000000
    outer loop
      vertex 58.463525 30.573415 -5.000000
      vertex 44.050000 21.000000 -5.000000
      vertex 56.786475 31.118322 -5.000000
    endloop
  endfacet
  facet normal 0.000000 -0.000000 -1.000000
    outer loop
      vertex 56.786475 32.881678 -5.000000
      vertex 12.463525 33.426585 -5.000000
      vertex 70.000000 40.000000 -5.000000
    endloop
  endfacet
  facet normal 0.000000 -0.000000 -1.000000
    outer loop
      vertex 12.463525 9.426585 -5.000000
      vertex 12.463525 30.573415 -5.000000
      vertex 25.000000 21.000000 -5.000000
    endloop
  endfacet
  facet normal 0.000000 0.000000 -1.000000
    outer loop
      vertex 12.463525 9.426585 -5.000000
      vertex 25.000000 21.000000 -5.000000
      vertex 25.000000 20.000000 -5.000000
    endloop
  endfacet
  facet normal -0.000000 0.000000 -1.000000
    outer loop
      vertex 12.463525 9.426585 -5.000000
      vertex 25.000000 20.000000 -5.000000
      vertex 70.000000 0.000000 -5.000000
    endloop
  endfacet
  facet normal -0.000000 0.000000 -1.000000
    outer loop
      vertex 58.463525 33.426585 -5.000000
      vertex 70.000000 40.000000 -5.000000
      vertex 59.500000 32.000000 -5.000000
    endloop
  endfacet
  facet normal 0.000000 0.000000 -1.000000
    outer loop
      vertex 56.786475 7.118322 -5.000000
      vertex 44.050000 20.000000 -5.000000
      vertex 56.786475 8.881678 -5.000000
    endloop
  endfacet
  facet normal -0.000000 -0.000000 -1.000000
    outer loop
      vertex 25.000000 21.000000 -5.000000
      vertex 12.463525 33.426585 -5.000000
      vertex 44.050000 21.000000 -5.000000
    endloop
  endfacet
  facet normal 0.000000 0.000000 -1.000000
    outer loop
      vertex 44.050000 20.000000 -5.000000
      vertex 56.786475 7.118322 -5.000000
      vertex 25.000000 20.000000 -5.000000
    endloop
  endfacet
  facet normal 0.000000 0.000000 -1.000000
    outer loop
      vertex 58.463525 30.573415 -5.000000
      vertex 44.050000 20.000000 -5.000000
      vertex 44.050000 21.000000 -5.000000
    endloop
  endfacet
  facet normal 0.000000 0.000000 -1.000000
    outer loop
      vertex 70.000000 0.000000 -5.000000
      vertex 58.463525 9.426585 -5.000000
      vertex 70.000000 40.000000 -5.000000
    endloop
  endfacet
  facet normal 0.000000 -0.000000 -1.000000
    outer loop
      vertex 44.050000 21.000000 -5.000000
      vertex 12.463525 33.426585 -5.000000
      vertex 56.786475 32.881678 -5.000000
    endloop
  endfacet
  facet normal 0.000000 -0.000000 -1.000000
    outer loop
      vertex 58.463525 33.426585 -5.000000
      vertex 56.786475 32.881678 -5.000000
      vertex 70.000000 40.000000 -5.000000
    endloop
  endfacet
  facet normal 0.000000 0.000000 -1.000000
    outer loop
      vertex 44.050000 21.000000 -5.000000
      vertex 56.786475 32.881678 -5.000000
      vertex 56.786475 31.118322 -5.000000
    endloop
  endfacet
  facet normal 0.000000 0.000000 -1.000000
    outer loop
      vertex 58.463525 9.426585 -5.000000
      vertex 44.050000 20.000000 -5.000000
      vertex 58.463525 30.573415 -5.000000
    endloop
  endfacet
  facet normal 0.000000 -0.000000 -1.000000
    outer loop
      vertex 58.463525 9.426585 -5.000000
      vertex 58.463525 30.573415 -5.000000
      vertex 70.000000 40.000000 -5.000000
    endloop
  endfacet
  facet normal 0.000000 0.000000 -1.000000
    outer loop
      vertex 13.500000 8.000000 -5.000000
      vertex 70.000000 0.000000 -5.000000
      vertex 12.463525 6.573415 -5.000000
    endloop
  endfacet
  facet normal 0.000000 0.000000 -1.000000
    outer loop
      vertex 58.463525 6.573415 -5.000000
      vertex 70.000000 0.000000 -5.000000
      vertex 56.786475 7.118322 -5.000000
    endloop
  endfacet
  facet normal 0.000000 0.000000 -1.000000
    outer loop
      vertex 59.500000 8.000000 -5.000000
      vertex 70.000000 0.000000 -5.000000
      vertex 58.463525 6.573415 -5.000000
    endloop
  endfacet
  facet normal 0.000000 0.000000 -1.000000
    outer loop
      vertex 58.463525 9.426585 -5.000000
      vertex 70.000000 0.000000 -5.000000
      vertex 59.500000 8.000000 -5.000000
    endloop
  endfacet
  facet normal 0.000000 -0.000000 -1.000000
    outer loop
      vertex 56.786475 8.881678 -5.000000
      vertex 44.050000 20.000000 -5.000000
      vertex 58.463525 9.426585 -5.000000
    endloop
  endfacet
  facet normal 0.000000 1.000000 0.000000
    outer loop
      vertex 0.000000 40.000000 -5.000000
      vertex 0.000000 40.000000 0.000000
      vertex 70.000000 40.000000 -5.000000
    endloop
  endfacet
  facet normal 0.000000 1.000000 0.000000
    outer loop
      vertex 70.000000 40.000000 -5.000000
      vertex 0.000000 40.000000 0.000000
      vertex 70.000000 40.000000 0.000000
    endloop
  endfacet
  facet normal 0.000000 -0.000000 1.000000
    outer loop
      vertex 12.463525 6.573415 0.000000
      vertex 0.000000 0.000000 0.000000
      vertex 70.000000 0.000000 0.000000
    endloop
  endfacet
  facet normal 0.000000 -0.000000 1.000000
    outer loop
      vertex 0.000000 40.000000 0.000000
      vertex 0.000000 0.000000 0.000000
      vertex 10.786475 7.118322 0.000000
    endloop
  endfacet
  facet normal 0.000000 -0.000000 1.000000
    outer loop
      vertex 13.500000 8.000000 0.000000
      vertex 12.463525 6.573415 0.000000
      vertex 70.000000 0.000000 0.000000
    endloop
  endfacet
  facet normal 0.000000 0.000000 1.000000
    outer loop
      vertex 0.000000 40.000000 0.000000
      vertex 10.786475 7.118322 0.000000
      vertex 10.786475 8.881678 0.000000
    endloop
  endfacet
  facet normal 0.000000 -0.000000 1.000000
    outer loop
      vertex 25.000000 20.000000 0.000000
      vertex 12.463525 9.426585 0.000000
      vertex 70.000000 0.000000 0.000000
    endloop
  endfacet
  facet normal 0.000000 0.000000 1.000000
    outer loop
      vertex 0.000000 40.000000 0.000000
      vertex 10.786475 8.881678 0.000000
      vertex 12.463525 9.426585 0.000000
    endloop
  endfacet
  facet normal 0.000000 -0.000000 1.000000
    outer loop
      vertex 10.786475 7.118322 0.000000
      vertex 0.000000 0.000000 0.000000
      vertex 12.463525 6.573415 0.000000
    endloop
  endfacet
  facet normal 0.000000 0.000000 1.000000
    outer loop
      vertex 56.786475 8.881678 0.000000
      vertex 44.050000 21.000000 0.000000
      vertex 44.050000 20.000000 0.000000
    endloop
  endfacet
  facet normal 0.000000 0.000000 1.000000
    outer loop
      vertex 0.000000 40.000000 0.000000
      vertex 12.463525 9.426585 0.000000
      vertex 10.786475 31.118322 0.000000
    endloop
  endfacet
  facet normal 0.000000 0.000000 1.000000
    outer loop
      vertex 25.000000 21.000000 0.000000
      vertex 12.463525 33.426585 0.000000
      vertex 13.500000 32.000000 0.000000
    endloop
  endfacet
  facet normal 0.000000 0.000000 1.000000
    outer loop
      vertex 0.000000 40.000000 0.000000
      vertex 10.786475 31.118322 0.000000
      vertex 10.786475 32.881678 0.000000
    endloop
  endfacet
  facet normal 0.000000 0.000000 1.000000
    outer loop
      vertex 70.000000 40.000000 0.000000
      vertex 0.000000 40.000000 0.000000
      vertex 12.463525 33.426585 0.000000
    endloop
  endfacet
  facet normal 0.000000 0.000000 1.000000
    outer loop
      vertex 56.786475 7.118322 0.000000
      vertex 56.786475 8.881678 0.000000
      vertex 44.050000 20.000000 0.000000
    endloop
  endfacet
  facet normal 0.000000 0.000000 1.000000
    outer loop
      vertex 56.786475 8.881678 0.000000
      vertex 58.463525 9.426585 0.000000
      vertex 44.050000 21.000000 0.000000
    endloop
  endfacet
  facet normal 0.000000 0.000000 1.000000
    outer loop
      vertex 10.786475 31.118322 0.000000
      vertex 12.463525 9.426585 0.000000
      vertex 25.000000 20.000000 0.000000
    endloop
  endfacet
  facet normal 0.000000 0.000000 1.000000
    outer loop
      vertex 25.000000 21.000000 0.000000
      vertex 44.050000 21.000000 0.000000
      vertex 12.463525 33.426585 0.000000
    endloop
  endfacet
  facet normal 0.000000 0.000000 1.000000
    outer loop
      vertex 10.786475 31.118322 0.000000
      vertex 25.000000 20.000000 0.000000
      vertex 25.000000 21.000000 0.000000
    endloop
  endfacet
  facet normal -0.000000 0.000000 1.000000
    outer loop
      vertex 56.786475 31.118322 0.000000
      vertex 12.463525 33.426585 0.000000
      vertex 44.050000 21.000000 0.000000
    endloop
  endfacet
  facet normal 0.000000 -0.000000 1.000000
    outer loop
      vertex 59.500000 8.000000 0.000000
      vertex 58.463525 6.573415 0.000000
      vertex 70.000000 0.000000 0.000000
    endloop
  endfacet
  facet normal 0.000000 0.000000 1.000000
    outer loop
      vertex 25.000000 21.000000 0.000000
      vertex 13.500000 32.000000 0.000000
      vertex 12.463525 30.573415 0.000000
    endloop
  endfacet
  facet normal 0.000000 0.000000 1.000000
    outer loop
      vertex 25.000000 21.000000 0.000000
      vertex 12.463525 30.573415 0.000000
      vertex 10.786475 31.118322 0.000000
    endloop
  endfacet
  facet normal 0.000000 0.000000 1.000000
    outer loop
      vertex 70.000000 40.000000 0.000000
      vertex 58.463525 9.426585 0.000000
      vertex 70.000000 0.000000 0.000000
    endloop
  endfacet
  facet normal 0.000000 0.000000 1.000000
    outer loop
      vertex 58.463525 30.573415 0.000000
      vertex 44.050000 21.000000 0.000000
      vertex 58.463525 9.426585 0.000000
    endloop
  endfacet
  facet normal -0.000000 0.000000 1.000000
    outer loop
      vertex 58.463525 30.573415 0.000000
      vertex 56.786475 31.118322 0.000000
      vertex 44.050000 21.000000 0.000000
    endloop
  endfacet
  facet normal -0.000000 0.000000 1.000000
    outer loop
      vertex 56.786475 32.881678 0.000000
      vertex 12.463525 33.426585 0.000000
      vertex 56.786475 31.118322 0.000000
    endloop
  endfacet
  facet normal 0.000000 0.000000 1.000000
    outer loop
      vertex 70.000000 40.000000 0.000000
      vertex 12.463525 33.426585 0.000000
      vertex 56.786475 32.881678 0.000000
    endloop
  endfacet
  facet normal 0.000000 0.000000 1.000000
    outer loop
      vertex 70.000000 40.000000 0.000000
      vertex 56.786475 32.881678 0.000000
      vertex 58.463525 33.426585 0.000000
    endloop
  endfacet
  facet normal 0.000000 0.000000 1.000000
    outer loop
      vertex 70.000000 40.000000 0.000000
      vertex 59.500000 32.000000 0.000000
      vertex 58.463525 9.426585 0.000000
    endloop
  endfacet
  facet normal 0.000000 0.000000 1.000000
    outer loop
      vertex 58.463525 33.426585 0.000000
      vertex 59.500000 32.000000 0.000000
      vertex 70.000000 40.000000 0.000000
    endloop
  endfacet
  facet normal 0.000000 0.000000 1.000000
    outer loop
      vertex 59.500000 32.000000 0.000000
      vertex 58.463525 30.573415 0.000000
      vertex 58.463525 9.426585 0.000000
    endloop
  endfacet
  facet normal 0.000000 0.000000 1.000000
    outer loop
      vertex 12.463525 9.426585 0.000000
      vertex 13.500000 8.000000 0.000000
      vertex 70.000000 0.000000 0.000000
    endloop
  endfacet
  facet normal 0.000000 0.000000 1.000000
    outer loop
      vertex 10.786475 32.881678 0.000000
      vertex 12.463525 33.426585 0.000000
      vertex 0.000000 40.000000 0.000000
    endloop
  endfacet
  facet normal 0.000000 0.000000 1.000000
    outer loop
      vertex 58.463525 9.426585 0.000000
      vertex 59.500000 8.000000 0.000000
      vertex 70.000000 0.000000 0.000000
    endloop
  endfacet
  facet normal -0.000000 -0.000000 1.000000
    outer loop
      vertex 58.463525 6.573415 0.000000
      vertex 56.786475 7.118322 0.000000
      vertex 70.000000 0.000000 0.000000
    endloop
  endfacet
  facet normal -0.000000 -0.000000 1.000000
    outer loop
      vertex 56.786475 7.118322 0.000000
      vertex 25.000000 20.000000 0.000000
      vertex 70.000000 0.000000 0.000000
    endloop
  endfacet
  facet normal 0.000000 -0.000000 1.000000
    outer loop
      vertex 44.050000 20.000000 0.000000
      vertex 25.000000 20.000000 0.000000
      vertex 56.786475 7.118322 0.000000
    endloop
  endfacet
  facet normal 1.000000 0.000000 -0.000000
    outer loop
      vertex 70.000000 0.000000 0.000000
      vertex 70.000000 0.000000 -5.000000
      vertex 70.000000 40.000000 -5.000000
    endloop
  endfacet
  facet normal 1.000000 0.000000 0.000000
    outer loop
      vertex 70.000000 40.000000 0.000000
      vertex 70.000000 0.000000 0.000000
      vertex 70.000000 40.000000 -5.000000
    endloop
  endfacet
  facet normal 0.309017 -0.951056 0.000000
    outer loop
      vertex 12.463525 9.426585 -5.000000
      vertex 12.463525 9.426585 0.000000
      vertex 10.786475 8.881678 0.000000
    endloop
  endfacet
  facet normal 0.309017 -0.951056 0.000000
    outer loop
      vertex 10.786475 8.881678 -5.000000
      vertex 12.463525 9.426585 -5.000000
      vertex 10.786475 8.881678 0.000000
    endloop
  endfacet
  facet normal 1.000000 0.000000 0.000000
    outer loop
      vertex 10.786475 8.881678 -5.000000
      vertex 10.786475 8.881678 0.000000
      vertex 10.786475 7.118322 0.000000
    endloop
  endfacet
  facet normal 1.000000 0.000000 0.000000
    outer loop
      vertex 10.786475 7.118322 -5.000000
      vertex 10.786475 8.881678 -5.000000
      vertex 10.786475 7.118322 0.000000
    endloop
  endfacet
  facet normal -0.809017 -0.587785 0.000000
    outer loop
      vertex 13.500000 8.000000 0.000000
      vertex 12.463525 9.426585 0.000000
      vertex 13.500000 8.000000 -5.000000
    endloop
  endfacet
  facet normal -0.809017 -0.587785 0.000000
    outer loop
      vertex 13.500000 8.000000 -5.000000
      vertex 12.463525 9.426585 0.000000
      vertex 12.463525 9.426585 -5.000000
    endloop
  endfacet
  facet normal -0.809017 0.587785 0.000000
    outer loop
      vertex 13.500000 8.000000 0.000000
      vertex 13.500000 8.000000 -5.000000
      vertex 12.463525 6.573415 0.000000
    endloop
  endfacet
  facet normal -0.809017 0.587785 0.000000
    outer loop
      vertex 12.463525 6.573415 0.000000
      vertex 13.500000 8.000000 -5.000000
      vertex 12.463525 6.573415 -5.000000
    endloop
  endfacet
  facet normal 0.309017 0.951056 -0.000000
    outer loop
      vertex 12.463525 6.573415 0.000000
      vertex 12.463525 6.573415 -5.000000
      vertex 10.786475 7.118322 0.000000
    endloop
  endfacet
  facet normal 0.309017 0.951056 -0.000000
    outer loop
      vertex 10.786475 7.118322 0.000000
      vertex 12.463525 6.573415 -5.000000
      vertex 10.786475 7.118322 -5.000000
    endloop
  endfacet
  facet normal 0.309017 -0.951056 0.000000
    outer loop
      vertex 12.463525 33.426585 -5.000000
      vertex 12.463525 33.426585 0.000000
      vertex 10.786475 32.881678 0.000000
    endloop
  endfacet
  facet normal 0.309017 -0.951056 0.000000
    outer loop
      vertex 10.786475 32.881678 -5.000000
      vertex 12.463525 33.426585 -5.000000
      vertex 10.786475 32.881678 0.000000
    endloop
  endfacet
  facet normal 1.000000 0.000000 0.000000
    outer loop
      vertex 10.786475 32.881678 -5.000000
      vertex 10.786475 32.881678 0.000000
      vertex 10.786475 31.118322 0.000000
    endloop
  endfacet
  facet normal 1.000000 0.000000 0.000000
    outer loop
      vertex 10.786475 31.118322 -5.000000
      vertex 10.786475 32.881678 -5.000000
      vertex 10.786475 31.118322 0.000000
    endloop
  endfacet
  facet normal -0.809017 -0.587785 0.000000
    outer loop
      vertex 13.500000 32.000000 0.000000
      vertex 12.463525 33.426585 0.000000
      vertex 13.500000 32.000000 -5.000000
    endloop
  endfacet
  facet normal -0.809017 -0.587785 0.000000
    outer loop
      vertex 13.500000 32.000000 -5.000000
      vertex 12.463525 33.426585 0.000000
      vertex 12.463525 33.426585 -5.000000
    endloop
  endfacet
  facet normal -0.809017 0.587785 0.000000
    outer loop
      vertex 13.500000 32.000000 0.000000
      vertex 13.500000 32.000000 -5.000000
      vertex 12.463525 30.573415 0.000000
    endloop
  endfacet
  facet normal -0.809017 0.587785 0.000000
    outer loop
      vertex 12.463525 30.573415 0.000000
      vertex 13.500000 32.000000 -5.000000
      vertex 12.463525 30.573415 -5.000000
    endloop
  endfacet
  facet normal 0.309017 0.951056 -0.000000
    outer loop
      vertex 12.463525 30.573415 0.000000
      vertex 12.463525 30.573415 -5.000000
      vertex 10.786475 31.118322 0.000000
    endloop
  endfacet
  facet normal 0.309017 0.951056 -0.000000
    outer loop
      vertex 10.786475 31.118322 0.000000
      vertex 12.463525 30.573415 -5.000000
      vertex 10.786475 31.118322 -5.000000
    endloop
  endfacet
  facet normal 1.000000 0.000000 0.000000
    outer loop
      vertex 25.000000 21.000000 -5.000000
      vertex 25.000000 21.000000 0.000000
      vertex 25.000000 20.000000 0.000000
    endloop
  endfacet
  facet normal 1.000000 0.000000 0.000000
    outer loop
      vertex 25.000000 20.000000 -5.000000
      vertex 25.000000 21.000000 -5.000000
      vertex 25.000000 20.000000 0.000000
    endloop
  endfacet
  facet normal 0.000000 -1.000000 0.000000
    outer loop
      vertex 44.050000 21.000000 -5.000000
      vertex 44.050000 21.000000 0.000000
      vertex 25.000000 21.000000 0.000000
    endloop
  endfacet
  facet normal -0.000000 -1.000000 -0.000000
    outer loop
      vertex 25.000000 21.000000 -5.000000
      vertex 44.050000 21.000000 -5.000000
      vertex 25.000000 21.000000 0.000000
    endloop
  endfacet
  facet normal -1.000000 0.000000 0.000000
    outer loop
      vertex 44.050000 21.000000 0.000000
      vertex 44.050000 21.000000 -5.000000
      vertex 44.050000 20.000000 0.000000
    endloop
  endfacet
  facet normal -1.000000 0.000000 0.000000
    outer loop
      vertex 44.050000 20.000000 0.000000
      vertex 44.050000 21.000000 -5.000000
      vertex 44.050000 20.000000 -5.000000
    endloop
  endfacet
  facet normal 0.000000 1.000000 0.000000
    outer loop
      vertex 44.050000 20.000000 0.000000
      vertex 44.050000 20.000000 -5.000000
      vertex 25.000000 20.000000 0.000000
    endloop
  endfacet
  facet normal 0.000000 1.000000 -0.000000
    outer loop
      vertex 25.000000 20.000000 0.000000
      vertex 44.050000 20.000000 -5.000000
      vertex 25.000000 20.000000 -5.000000
    endloop
  endfacet
  facet normal 1.000000 0.000000 0.000000
    outer loop
      vertex 56.786475 8.881678 -5.000000
      vertex 56.786475 8.881678 0.000000
      vertex 56.786475 7.118322 0.000000
    endloop
  endfacet
  facet normal 1.000000 0.000000 0.000000
    outer loop
      vertex 56.786475 7.118322 -5.000000
      vertex 56.786475 8.881678 -5.000000
      vertex 56.786475 7.118322 0.000000
    endloop
  endfacet
  facet normal 0.309017 -0.951056 0.000000
    outer loop
      vertex 58.463525 9.426585 -5.000000
      vertex 58.463525 9.426585 0.000000
      vertex 56.786475 8.881678 0.000000
    endloop
  endfacet
  facet normal 0.309017 -0.951056 0.000000
    outer loop
      vertex 56.786475 8.881678 -5.000000
      vertex 58.463525 9.426585 -5.000000
      vertex 56.786475 8.881678 0.000000
    endloop
  endfacet
  facet normal -0.809017 -0.587785 0.000000
    outer loop
      vertex 59.500000 8.000000 0.000000
      vertex 58.463525 9.426585 0.000000
      vertex 59.500000 8.000000 -5.000000
    endloop
  endfacet
  facet normal -0.809017 -0.587785 0.000000
    outer loop
      vertex 59.500000 8.000000 -5.000000
      vertex 58.463525 9.426585 0.000000
      vertex 58.463525 9.426585 -5.000000
    endloop
  endfacet
  facet normal -0.809017 0.587785 0.000000
    outer loop
      vertex 59.500000 8.000000 0.000000
      vertex 59.500000 8.000000 -5.000000
      vertex 58.463525 6.573415 0.000000
    endloop
  endfacet
  facet normal -0.809017 0.587785 0.000000
    outer loop
      vertex 58.463525 6.573415 0.000000
      vertex 59.500000 8.000000 -5.000000
      vertex 58.463525 6.573415 -5.000000
    endloop
  endfacet
  facet normal 0.309017 0.951056 -0.000000
    outer loop
      vertex 58.463525 6.573415 0.000000
      vertex 58.463525 6.573415 -5.000000
      vertex 56.786475 7.118322 0.000000
    endloop
  endfacet
  facet normal 0.309017 0.951056 -0.000000
    outer loop
      vertex 56.786475 7.118322 0.000000
      vertex 58.463525 6.573415 -5.000000
      vertex 56.786475 7.118322 -5.000000
    endloop
  endfacet
  facet normal 1.000000 0.000000 0.000000
    outer loop
      vertex 56.786475 32.881678 -5.000000
      vertex 56.786475 32.881678 0.000000
      vertex 56.786475 31.118322 0.000000
    endloop
  endfacet
  facet normal 1.000000 0.000000 0.000000
    outer loop
      vertex 56.786475 31.118322 -5.000000
      vertex 56.786475 32.881678 -5.000000
      vertex 56.786475 31.118322 0.000000
    endloop
  endfacet
  facet normal 0.309017 -0.951056 0.000000
    outer loop
      vertex 58.463525 33.426585 -5.000000
      vertex 58.463525 33.426585 0.000000
      vertex 56.786475 32.881678 0.000000
    endloop
  endfacet
  facet normal 0.309017 -0.951056 0.000000
    outer loop
      vertex 56.786475 32.881678 -5.000000
      vertex 58.463525 33.426585 -5.000000
      vertex 56.786475 32.881678 0.000000
    endloop
  endfacet
  facet normal -0.809017 -0.587785 0.000000
    outer loop
      vertex 59.500000 32.000000 0.000000
      vertex 58.463525 33.426585 0.000000
      vertex 59.500000 32.000000 -5.000000
    endloop
  endfacet
  facet normal -0.809017 -0.587785 0.000000
    outer loop
      vertex 59.500000 32.000000 -5.000000
      vertex 58.463525 33.426585 0.000000
      vertex 58.463525 33.426585 -5.000000
    endloop
  endfacet
  facet normal -0.809017 0.587785 0.000000
    outer loop
      vertex 59.500000 32.000000 0.000000
      vertex 59.500000 32.000000 -5.000000
      vertex 58.463525 30.573415 0.000000
    endloop
  endfacet
  facet normal -0.809017 0.587785 0.000000
    outer loop
      vertex 58.463525 30.573415 0.000000
      vertex 59.500000 32.000000 -5.000000
      vertex 58.463525 30.573415 -5.000000
    endloop
  endfacet
  facet normal 0.309017 0.951056 -0.000000
    outer loop
      vertex 58.463525 30.573415 0.000000
      vertex 58.463525 30.573415 -5.000000
      vertex 56.786475 31.118322 0.000000
    endloop
  endfacet
  facet normal 0.309017 0.951056 -0.000000
    outer loop
      vertex 56.786475 31.118322 0.000000
      vertex 58.463525 30.573415 -5.000000
      vertex 56.786475 31.118322 -5.000000
    endloop
  endfacet
endsolid OpenSCAD_Model
